<svg width="24" height="15" fill="none" xmlns="http://www.w3.org/2000/svg"><path d="M4.8 2.9a2.4 2.4 0 0 0-2.4 2.4v4.8a2.4 2.4 0 0 0 2.4 2.4H12a2.4 2.4 0 0 0 2.4-2.4V5.3A2.4 2.4 0 0 0 12 2.9H4.8zm11.976 1.926L19.2 2.402a2.4 2.4 0 0 1 1.697-.702h.703A2.4 2.4 0 0 1 24 4.1v7.2a2.4 2.4 0 0 1-2.4 2.4h-.703a2.4 2.4 0 0 1-1.697-.703l-2.424-2.423A4.8 4.8 0 0 1 12 14.9H4.8A4.8 4.8 0 0 1 0 10.1V5.3A4.8 4.8 0 0 1 4.8.5H12a4.8 4.8 0 0 1 4.776 4.326zm4.122 6.474h.702V4.1h-.703l-3.6 3.6 3.6 3.6h.001zM6 10.1a1.2 1.2 0 1 1 0-2.4 1.2 1.2 0 0 1 0 2.4z" fill="#1C306D"/></svg>