<svg width="18" height="22" fill="none" xmlns="http://www.w3.org/2000/svg"><path d="M1 18V9h16v9a3 3 0 0 1-3 3H4a3 3 0 0 1-3-3z" stroke="#007DFF" stroke-width="2" stroke-linecap="round" stroke-linejoin="round"/><mask id="a" fill="#fff"><path fill-rule="evenodd" clip-rule="evenodd" d="M4 11V5a5 5 0 0 1 5-5 5 5 0 0 1 5 5v6"/></mask><path d="M2 11a2 2 0 1 0 4 0H2zm10 0a2 2 0 1 0 4 0h-4zm-6 0V5H2v6h4zm0-6a3 3 0 0 1 3-3v-4a7 7 0 0 0-7 7h4zm3-3a3 3 0 0 1 3 3h4a7 7 0 0 0-7-7v4zm3 3v6h4V5h-4z" fill="#007DFF" mask="url(#a)"/></svg>