<svg width="80" height="80" fill="none" xmlns="http://www.w3.org/2000/svg"><path fill="#fff" fill-opacity=".01" d="M0 0h80v80H0z"/><path fill-rule="evenodd" clip-rule="evenodd" d="M20.995 64.214c.38-1.352.34-3.964-.136-5.607l-.266-.098c-.721.658-1.146 1.438-1.484 2.264-1.133 2.958-.005 3.782.014 6.116a46.41 46.41 0 0 1-4.748-7.75c.2-3.09 1.655-1.832 2.558-6.027.166-.852.297-1.72.212-2.736l-.235-.152c-.824.437-1.39 1.048-1.886 1.723-1.735 2.493-.74 3.354-1.345 5.689a46.592 46.592 0 0 1-2.778-8.353c.553-2.27 1.102-1.846 2.477-3.223.807-.829 1.77-2.85 1.947-4.51a7.992 7.992 0 0 1-.199-.201c-.861.205-1.517.64-2.115 1.144-2.44 2.16-.966 2.565-2.474 5.056a47.344 47.344 0 0 1-.838-8.57c1.403-3.28 2.271-1.045 4.643-4.309.436-.635.843-1.3 1.116-2.206l-.15-.242c-.847-.019-1.538.236-2.192.562-2.777 1.504-1.377 2.356-3.391 4.267a47.39 47.39 0 0 1 1.043-8.382c1.625-2.475 1.335-1.42 3.67-2.18 1.18-.397 2.567-1.877 3.16-3.021-.025-.089-.056-.18-.086-.27-1.31-.381-3.049.08-3.961.98-1.044 1.052-.892 1.676-2.274 2.392a46.974 46.974 0 0 1 2.953-8.07c.023.03.049.061.072.094 3-3.072 2.68-.229 5.799-2.14.581-.379 1.153-.806 1.718-1.523-.007-.098-.017-.196-.023-.294-1.098-.675-2.778-.635-3.805.03-1.11.743-1.303 1.543-2.678 1.828.01-.06.012-.119.023-.18a47.45 47.45 0 0 1 7.666-10.464 48.011 48.011 0 0 0-7.502 9.314c.14-2.237.121-4.326-1.487-6.084l-.315.117c-1.625 2.855-1.893 6.114.17 8.83a47.732 47.732 0 0 0-2.976 6.953c-.385-2.223-1.216-4.433-2.988-5.797-.094.059-.187.12-.28.18-.871 3.266-.271 6.763 2.269 8.978a48.438 48.438 0 0 0-1.282 7.183c-.971-2.115-2.29-4.172-4.386-5.269-.077.077-.154.157-.234.234-.056 3.52 1.41 6.893 4.387 8.681a48.49 48.49 0 0 0 .343 7.171c-1.478-1.89-3.331-3.718-5.687-4.475-.058.094-.119.187-.177.28.805 3.537 3.016 6.614 6.468 7.937a48.601 48.601 0 0 0 1.933 6.889c-2.93-2.337-5.119-3.166-6.863-3.399l-.11.315c1.677 3.376 4.569 6.013 8.477 6.749a48.513 48.513 0 0 0 3.499 6.335c-3.64-1.739-6.1-2.133-7.89-2.054l-.035.338c2.553 3.06 6.1 5.092 10.369 5.127a49.578 49.578 0 0 0 3.352 3.84l1.89-1.891a47.138 47.138 0 0 1-3.825-4.167c-.273-2.033.352-2.171.873-3.952zm48.526-7.237a48.302 48.302 0 0 0 1.933-6.889c3.082-1.18 5.572-4.003 6.469-7.936-.059-.094-.117-.187-.178-.28-2.357.756-4.209 2.588-5.686 4.474a48.5 48.5 0 0 0 .343-7.17c2.98-1.793 4.442-5.169 4.386-8.682-.077-.077-.154-.157-.233-.233-2.083 1.09-3.404 3.132-4.387 5.268a48.429 48.429 0 0 0-1.281-7.183c2.112-1.804 3.289-5.156 2.269-8.98-.094-.06-.187-.119-.28-.18-1.781 1.37-2.608 3.593-2.988 5.797a47.752 47.752 0 0 0-2.977-6.954c2.062-2.73 1.805-5.958.169-8.831-.105-.04-.21-.077-.316-.117-1.606 1.758-1.627 3.847-1.486 6.086a48.01 48.01 0 0 0-7.503-9.314 47.453 47.453 0 0 1 7.666 10.464c.012.061.014.117.023.18-1.375-.287-1.568-1.088-2.68-1.828-1.027-.665-2.707-.705-3.805-.03l-.023.294c.759.967 2.327 2.136 3.516 2.236 2.117.152 1.802-.826 4 1.427.024-.03.047-.063.073-.094a46.901 46.901 0 0 1 2.953 8.07c-2.327-1.209-1.142-2.565-4.11-3.364-.664-.156-1.348-.235-2.125-.011l-.091.273c.425.822.927 1.37 1.447 1.877 2.927 2.696 3.16-.024 5.385 3.326.6 2.769.948 5.575 1.044 8.383-2.274-2.16-.528-2.72-3.392-4.267-.653-.327-1.342-.584-2.19-.563-.048.082-.1.161-.149.243.472 1.573 1.744 3.228 2.647 3.79 1.732 1.058 2.113.39 3.112 2.725a47.326 47.326 0 0 1-.838 8.57c-1.415-2.335-.068-2.928-2.474-5.057-.598-.506-1.254-.938-2.115-1.144-.066.068-.133.136-.199.201.103.974.39 1.746.707 2.5 1.714 3.798 2.928 1.991 3.717 5.234a46.621 46.621 0 0 1-2.778 8.352c-.514-1.986-.021-1.555-.308-3.36-.255-1.512-1.494-3.295-2.923-4.052-.08.052-.159.103-.238.152-.448 5.49 2.556 5.442 2.771 8.763a46.411 46.411 0 0 1-4.748 7.75c.019-2.334 1.146-3.156.014-6.116-.339-.826-.763-1.606-1.485-2.264l-.266.098c-.476 1.641-.516 4.253-.135 5.607.523 1.788 1.146 1.919.875 3.948a47.153 47.153 0 0 1-3.826 4.166l1.891 1.891a49.545 49.545 0 0 0 3.35-3.84c1.837-.014 3.364-.34 4.762-.908 1.926-.875 3.856-2.117 5.607-4.211l-.035-.338c-1.79-.078-4.25.315-7.89 2.054a48.514 48.514 0 0 0 3.499-6.336c3.929-.737 6.812-3.394 8.476-6.748-.037-.105-.072-.21-.11-.315-1.736.23-3.926 1.057-6.856 3.396z" fill="#FCB645"/><path fill-rule="evenodd" clip-rule="evenodd" d="M40.391 19.46l5.651 17.39h18.283L49.532 47.599l5.652 17.389L40.39 54.239 25.598 64.987l5.652-17.389-14.795-10.747H34.74l5.65-17.391z" fill="#FFCC5B"/><path fill-rule="evenodd" clip-rule="evenodd" d="M40.39 19.46v24.821l5.652-7.43-5.651-17.391zm0 24.822l23.935-7.43-14.793 10.747-9.141-3.317z" fill="#FCB645"/><path fill-rule="evenodd" clip-rule="evenodd" d="M40.39 44.281l14.793 20.706L40.391 54.24v-9.96z" fill="#FCB645"/><path fill-rule="evenodd" clip-rule="evenodd" d="M40.39 44.281l-9.14 3.317-5.652 17.389L40.391 44.28z" fill="#FCB645"/><path fill-rule="evenodd" clip-rule="evenodd" d="M16.455 36.852H34.74l5.651 7.43-23.936-7.43z" fill="#FCB645"/><path d="M47.954 58.522h-1.669l4.013 2.915c.026-.117.084-.217.09-.338a2.451 2.451 0 0 0-2.434-2.577zM27.8 63.388l10.252-7.449c.075-1.31 1.265-2.308 2.575-2.308h2.098a2.414 2.414 0 0 0 2.363-2.435 2.445 2.445 0 0 0-2.435-2.435h-4.438c-1.146 0-2.075-.931-2.052-2.052v-.191a1.938 1.938 0 0 1 1.933-2.052h10.381c1.335 0 2.505-.978 2.6-2.29.047-1.408-1.05-2.577-2.457-2.577h-9.595a2.068 2.068 0 0 1-2.051-2.052l.023-.142v-.024c-.023-1.193.955-2.17 2.147-2.17h.815c1.335 0 2.505-.979 2.6-2.314.047-1.408-1.05-2.577-2.457-2.577h-1.413c-.665 0-1.207-.322-1.573-.799l-2.383 7.333H16.455L31.247 47.6l-5.13 15.792h1.682v-.005zM38.26 26.02c.145-.033.278-.093.434-.093h3.798l-1.58-4.867h-1.04l-1.612 4.96z" opacity=".05" fill-rule="evenodd" clip-rule="evenodd" fill="#010101"/></svg>