<svg width="80" height="80" fill="none" xmlns="http://www.w3.org/2000/svg"><g clip-path="url(#clip0)"><path d="M33.76 79.58l30.856-53.13c.698-1.203-.293-2.684-1.67-2.496l-20.527 2.79L47.325.996C47.49.128 46.37-.37 45.837.334l-30.34 40.049c-.883 1.166.053 2.825 1.508 2.672l22.63-2.382-7.42 38.33c-.178.924 1.071 1.392 1.544.578z" fill="#FFDC64"/><path d="M24.986 37.546a.692.692 0 0 1-.642-1.056L47.028.195c-.337-.267-.869-.284-1.19.14l-30.34 40.05c-.884 1.166.052 2.824 1.507 2.67l22.63-2.381-7.42 38.33c-.1.516.25.88.657.967l12.713-40.226c.596-1.886-.908-3.774-2.879-3.617l-17.72 1.418z" fill="#FFC850"/></g><defs><clipPath id="clip0"><path fill="#fff" d="M0 0h80v80H0z"/></clipPath></defs></svg>