<svg width="120" height="120" fill="none" xmlns="http://www.w3.org/2000/svg"><path fill="#fff" fill-opacity=".01" d="M0 0h120v120H0z"/><path fill-rule="evenodd" clip-rule="evenodd" d="M112.625 31.098l-7.194 25.335 7.194 14.386s-6.567 11.26-41.913 9.695l16.146-24.633-.195-15.409c8.914-.295 17.554-3.567 25.962-9.374z" fill="#E95454"/><path fill-rule="evenodd" clip-rule="evenodd" d="M70.715 80.514s17.204-7.82 21.583-13.763L81.508 45.17l-10.79 3.13v32.215h-.003z" fill="#CD494C"/><path fill-rule="evenodd" clip-rule="evenodd" d="M18.793 21.402s38.783-18.141 73.502 3.13v42.223s-13.74-13.454-56.902-6.576l-16.6-38.776z" fill="#ED6362"/><path fill-rule="evenodd" clip-rule="evenodd" d="M72.774 39.573h-19.21a2.739 2.739 0 0 1-2.717-2.717l.032-.188v-.033c-.032-1.58 1.263-2.876 2.844-2.876h13.302c1.77 0 3.317-1.295 3.444-3.064.062-1.863-1.39-3.412-3.256-3.412h-14.09c-1.581 0-2.717-1.295-2.717-2.875v-.065c0-1.549 1.136-2.876 2.717-2.876h8.183c1.736 0 3.285-1.295 3.382-3.032a3.223 3.223 0 0 0-3.223-3.412H42.287c-13.905 1.9-23.494 6.379-23.494 6.379l15.73 36.75h27.22c1.737-.032 3.13-1.453 3.13-3.222a3.238 3.238 0 0 0-3.223-3.224h-9.164c-1.516 0-2.75-1.233-2.717-2.717v-.253a2.566 2.566 0 0 1 2.558-2.717H72.58c1.769 0 3.317-1.295 3.444-3.035.068-1.863-1.386-3.411-3.25-3.411z" fill="#EF7374"/><path fill-rule="evenodd" clip-rule="evenodd" d="M53.83 111.108a3.288 3.288 0 0 1-4.281-1.808L13.528 19.863a3.287 3.287 0 0 1 6.09-2.473l36.02 89.44a3.282 3.282 0 0 1-1.808 4.278z" fill="#FFCC5B"/><path fill-rule="evenodd" clip-rule="evenodd" d="M14.966 21.418a6.395 6.395 0 1 0 0-12.79 6.395 6.395 0 0 0 0 12.79z" fill="#FDBC4B"/></svg>