<svg width="100" height="100" fill="none" xmlns="http://www.w3.org/2000/svg"><path fill="#fff" fill-opacity=".01" d="M0 0h100v100H0z"/><path fill-rule="evenodd" clip-rule="evenodd" d="M66.811 7.143H33.187c-1.977 8.989-9.983 15.726-19.564 15.726v12.787c0 25.535 13.95 44.976 36.356 57.2 22.446-12.224 36.396-31.665 36.396-57.2V22.869c-9.613 0-17.593-6.737-19.564-15.726z" fill="#FDBC4B"/><path fill-rule="evenodd" clip-rule="evenodd" d="M19.65 35.554c0 22.42 11.501 38.603 30.334 50.271 19.093-11.767 30.367-28.122 30.367-50.274v-7.436l-1.427-.43c-6.935-2.1-12.745-7.021-15.946-13.5l-.552-1.12H37.57l-.554 1.12c-3.201 6.476-9.011 11.396-15.94 13.5l-1.426.43v7.439zm4.017 0v-4.495a30.43 30.43 0 0 0 16.37-13.977h19.92A30.429 30.429 0 0 0 76.33 31.06v4.495c0 23.528-14.079 37.677-26.347 45.538-12.254-7.867-26.317-22.018-26.317-45.538z" fill="#F3F3F3"/><path fill-rule="evenodd" clip-rule="evenodd" d="M23.667 31.06v4.494c0 23.521 14.063 37.672 26.317 45.539C62.252 73.23 76.33 59.083 76.33 35.554V31.06a30.428 30.428 0 0 1-16.374-13.977h-19.92A30.43 30.43 0 0 1 23.667 31.06z" fill="#4B9FD8"/><path fill-rule="evenodd" clip-rule="evenodd" d="M23.667 31.06v4.494c0 18.321 8.537 30.935 18.1 39.346h9.195c1.797 0 3.404-1.348 3.511-3.148a3.345 3.345 0 0 0-3.34-3.511l-10.741-.003c-4.38 0-4.479-6.664.188-6.664h6.24a3.339 3.339 0 0 0 3.244-3.33c0-1.84-1.497-3.34-3.34-3.34-8.421 0-12.294.811-12.244-2.805v-.235c-.107-1.519 1.115-2.805 2.633-2.805H58.01c1.819 0 3.426-1.347 3.53-3.147A3.345 3.345 0 0 0 58.2 42.4H38.39c-1.68 0-2.95-1.489-2.784-2.997v-.038c-.021-1.625 1.305-2.954 2.933-2.954h13.73c1.82 0 3.427-1.347 3.534-3.169.086-1.904-1.433-3.511-3.34-3.511-14.433 0-17.379.838-17.328-2.955v-.086c-.022-1.604 1.176-2.954 2.783-2.954h15.22c1.797 0 3.404-1.347 3.511-3.147a3.345 3.345 0 0 0-3.34-3.512H40.036A30.417 30.417 0 0 1 23.667 31.06z" fill="#3789C9"/><path fill-rule="evenodd" clip-rule="evenodd" d="M40.547 57.293c-.056-.021-.112-.04-.168-.062-.459.418-.729.914-.946 1.441-.777 2.03-.005 2.028.008 3.89a29.482 29.482 0 0 1-3.019-4.929c.089-1.366.483-1.264 1.11-2.309.396-.68.744-2.164.653-3.262l-.15-.097c-.525.276-.884.667-1.2 1.096-1.184 1.7-.402 1.861-.855 3.619a29.622 29.622 0 0 1-1.765-5.312c.097-.391.222-.758.44-1.045.294-.412.784-.653 1.135-1.004.514-.528 1.125-1.814 1.238-2.869-.043-.043-.083-.086-.126-.128-.55.13-.965.407-1.345.728-1.59 1.406-.675 1.73-1.575 3.217a30.021 30.021 0 0 1-.533-5.45c.852-1.991 2.756-1.123 3.662-4.145l-.097-.152c-.538-.014-.977.15-1.393.359-1.834.994-.902 1.524-2.156 2.713a29.9 29.9 0 0 1 .664-5.33c.02-.027.035-.054.054-.08 1.334-2.026 1.54-.352 3.372-2.034.333-.321.651-.672.922-1.194-.019-.06-.04-.115-.06-.174-.492-.145-.929-.094-1.35.005-1.976.53-1.132 1.371-2.613 2.14a29.966 29.966 0 0 1 1.877-5.132l.046.059c.37-.378.803-.82 1.315-.932.394-.102.83.056 1.23.027.401-.035.77-.228 1.143-.456.37-.24.734-.511 1.093-.97a4.374 4.374 0 0 1-.013-.187c-.418-.257-.823-.308-1.227-.308-1.535.035-1.203.616-2.317 1.259-.188.115-.38.185-.581.225l.013-.113a30.216 30.216 0 0 1 4.875-6.656 30.51 30.51 0 0 0-4.77 5.922c.005-.064.032-.136.032-.198.088-1.328-.067-2.676-.978-3.672-.067.024-.134.048-.2.075-1.043 1.827-1.204 3.892.106 5.617a30.676 30.676 0 0 0-1.893 4.422c-.244-1.414-.775-2.82-1.902-3.685-.054.034-.115.072-.174.112-.555 2.073-.174 4.3 1.443 5.71a30.81 30.81 0 0 0-.814 4.57c-.619-1.344-1.457-2.654-2.791-3.35-.05.048-.1.099-.147.15-.035 2.233.897 4.384 2.79 5.523-.04 1.519.033 3.045.218 4.559-.94-1.203-2.12-2.366-3.616-2.845l-.113.18c.514 2.252 1.92 4.205 4.114 5.049.3 1.48.71 2.943 1.23 4.382-1.864-1.487-3.257-2.012-4.366-2.162-.024.067-.048.134-.07.201 1.072 2.162 2.906 3.825 5.39 4.291a30.434 30.434 0 0 0 2.225 4.029c-2.314-1.107-3.878-1.356-5.017-1.308a5.921 5.921 0 0 0-.021.218c1.647 1.97 3.908 3.235 6.595 3.257a31.327 31.327 0 0 0 2.132 2.443l1.202-1.203a30.159 30.159 0 0 1-2.434-2.652c-.292-2.175 1.521-2.448.468-6.083zm25.01-1.039a30.87 30.87 0 0 0 1.23-4.382c2.199-.844 3.602-2.8 4.114-5.05-.038-.058-.075-.12-.113-.179-1.5.48-2.675 1.645-3.616 2.845.185-1.516.257-3.04.217-4.56 1.648-.987 2.829-2.972 2.791-5.522-.048-.051-.099-.1-.147-.15-1.326.694-2.164 1.993-2.791 3.35a30.812 30.812 0 0 0-.814-4.569c1.596-1.363 2.003-3.613 1.443-5.71l-.176-.113c-1.123.862-1.656 2.276-1.902 3.686a30.533 30.533 0 0 0-1.891-4.423c1.302-1.722 1.144-3.795.107-5.617a6.06 6.06 0 0 1-.201-.075c-1.023 1.117-1.034 2.446-.946 3.87a30.529 30.529 0 0 0-4.77-5.922 30.124 30.124 0 0 1 4.875 6.657l.013.112c-1.901-.396-.809-1.43-2.895-1.492-.405.003-.81.051-1.227.308-.005.062-.01.126-.013.188.482.613 1.48 1.358 2.236 1.422 1.348.096 1.147-.525 2.545.905.016-.018.03-.04.045-.058a29.883 29.883 0 0 1 1.878 5.132c-1.784-.927-.554-1.586-2.614-2.14-.423-.1-.857-.15-1.35-.006a4.403 4.403 0 0 1-.06.174c.376.726 1.26 1.669 2.013 1.92 1.205.395 1.317-.157 2.282 1.308l.053.08c.38 1.76.603 3.547.664 5.33-1.253-1.189-.32-1.722-2.156-2.713-.415-.209-.854-.37-1.393-.359l-.096.153c.905 3.016 2.812 2.159 3.662 4.144a30.03 30.03 0 0 1-.534 5.45c-.567-.937-.289-1.05-.664-2.006-.343-.849-1.307-1.709-2.255-1.936l-.126.128c.348 3.29 2.312 2.861 2.812 4.918a29.64 29.64 0 0 1-1.765 5.312c-.327-1.264-.013-.989-.195-2.138-.164-.961-.951-2.097-1.86-2.577-.05.033-.098.065-.15.097-.297 3.621 1.621 3.399 1.763 5.574a29.367 29.367 0 0 1-3.018 4.929c.01-1.233.251-1.096.324-2.178.061-1.045-.456-2.419-1.26-3.153a4.092 4.092 0 0 1-.168.062c-.959 3.313.718 4.23.471 6.078a30.173 30.173 0 0 1-2.434 2.651l1.202 1.203a32.042 32.042 0 0 0 2.132-2.443c2.69-.021 4.948-1.286 6.595-3.257-.008-.072-.013-.145-.021-.217-1.139-.048-2.703.2-5.017 1.307a31.202 31.202 0 0 0 2.226-4.028c2.402-.453 4.299-2.092 5.389-4.291l-.07-.201c-1.117.16-2.51.685-4.374 2.172z" fill="#FDBC4B"/><path fill-rule="evenodd" clip-rule="evenodd" d="M11.868 88.28a96.207 96.207 0 0 1 18.201-5.808c-.822-3.878-1.647-7.76-2.47-11.638a108.017 108.017 0 0 0-20.456 6.525 93.706 93.706 0 0 1 8.28 3.115 96.734 96.734 0 0 0-3.555 7.805z" fill="#E95454"/><path fill-rule="evenodd" clip-rule="evenodd" d="M28.93 77.107c.381 1.79.759 3.579 1.14 5.368a88.677 88.677 0 0 0-9.06-3.348 101.411 101.411 0 0 1 7.92-2.02z" fill="#CD494C"/><path fill-rule="evenodd" clip-rule="evenodd" d="M88.132 88.28a96.207 96.207 0 0 0-18.2-5.808c.822-3.878 1.647-7.76 2.47-11.638a108.016 108.016 0 0 1 20.456 6.525 93.711 93.711 0 0 0-8.28 3.115 96.734 96.734 0 0 1 3.554 7.805z" fill="#E95454"/><path fill-rule="evenodd" clip-rule="evenodd" d="M71.07 77.107l-1.138 5.368a88.67 88.67 0 0 1 9.059-3.348 100.877 100.877 0 0 0-7.921-2.02z" fill="#CD494C"/><path fill-rule="evenodd" clip-rule="evenodd" d="M78.99 79.124a101.53 101.53 0 0 0-57.98 0c-1.468-4.92-2.933-9.844-4.401-14.767 21.782-6.493 45-6.493 66.785 0L78.99 79.124z" fill="#ED6362"/><path fill-rule="evenodd" clip-rule="evenodd" d="M33.664 63.524a163.09 163.09 0 0 1 1.904 3.563 97.935 97.935 0 0 1 4.407-.557 94.045 94.045 0 0 0-3.276 2.777c.6 1.2 1.186 2.406 1.754 3.617a86.34 86.34 0 0 0-3.696-1.846 92.083 92.083 0 0 0-3.008 2.946c.2-1.336.42-2.673.653-4.012a92.768 92.768 0 0 0-3.919-1.597 94.14 94.14 0 0 1 4.372-.883c.252-1.337.522-2.671.809-4.008zM50 62.19c.472 1.273.93 2.55 1.37 3.83 1.475.022 2.951.076 4.427.164a92.108 92.108 0 0 0-3.63 2.213c.421 1.283.828 2.568 1.217 3.86A90.374 90.374 0 0 0 50 69.832a90.452 90.452 0 0 0-3.383 2.425 173.18 173.18 0 0 1 1.216-3.86 89.11 89.11 0 0 0-3.63-2.213 97.747 97.747 0 0 1 4.428-.163c.44-1.28.897-2.556 1.369-3.83zm16.337 1.334c.287 1.337.554 2.67.809 4.008 1.463.26 2.92.554 4.371.883a86.242 86.242 0 0 0-3.918 1.597c.233 1.337.452 2.673.653 4.012a92.068 92.068 0 0 0-3.008-2.946 84.844 84.844 0 0 0-3.696 1.846c.57-1.211 1.154-2.417 1.754-3.617a97.785 97.785 0 0 0-3.276-2.777c1.47.152 2.941.337 4.407.557a189.673 189.673 0 0 1 1.904-3.563z" fill="#fff"/></svg>