<svg width="149" height="149" fill="none" xmlns="http://www.w3.org/2000/svg"><path fill="#fff" fill-opacity=".01" d="M33.482.482l115.352 33.076-33.077 115.352L.406 115.833z"/><path fill-rule="evenodd" clip-rule="evenodd" d="M57.044 62.394L23.802 96.867l20.118 3.809 4.54 19.967L81.702 86.17 57.044 62.394z" fill="#E95454"/><path fill-rule="evenodd" clip-rule="evenodd" d="M46.825 107.36c.979-1.127.791-2.863-.283-3.9l-1.052-1.017a2.766 2.766 0 0 1-.02-3.85 2.769 2.769 0 0 1 3.91-.074l2.976 2.87c.92.886 2.399.858 3.27-.072l.135-.142c.938-.845.948-2.313.04-3.185l-8.9-8.581c-1.085-1.047-1.269-2.775-.298-3.908a2.77 2.77 0 0 1 4.009-.174l8.256 7.962a2.33 2.33 0 0 0 3.285-.062l.096-.126.025-.026a2.426 2.426 0 0 0-.051-3.45l-4.632-4.464c-1.084-1.046-1.268-2.774-.284-3.92 1.046-1.185 2.875-1.269 4.01-.174L66.431 86c.956.923 2.447.809 3.357-.161l.024-.026c.014-.013.014-.013.024-.027.937-.945.997-2.44.037-3.36l-5.52-5.321c-1.07-1.033-1.254-2.76-.284-3.893a2.77 2.77 0 0 1 4.01-.175l13.615 13.13-33.241 34.473-2.848-12.517c.458-.15.884-.375 1.22-.764z" fill="#ED6362"/><path fill-rule="evenodd" clip-rule="evenodd" d="M97.415 73.97l9.923 46.85-19.08-7.431-14.43 14.527-9.923-46.85 33.51-7.096z" fill="#ED6362"/><path fill-rule="evenodd" clip-rule="evenodd" d="M82.252 117.519c-.232-1.475.847-2.847 2.307-3.158l1.431-.305a2.765 2.765 0 0 0 2.058-3.255 2.77 2.77 0 0 0-3.278-2.134l-4.044.857c-1.25.264-2.49-.543-2.736-1.794l-.038-.192c-.348-1.213.422-2.464 1.653-2.722l12.1-2.563c1.475-.313 2.546-1.681 2.323-3.156a2.77 2.77 0 0 0-3.307-2.272L79.5 99.2a2.33 2.33 0 0 1-2.753-1.792l-.015-.159-.007-.035a2.426 2.426 0 0 1 1.871-2.898l6.294-1.331c1.474-.313 2.545-1.681 2.318-3.174-.259-1.56-1.766-2.6-3.308-2.273l-6.96 1.478c-1.3.276-2.504-.61-2.762-1.915-.005-.018-.005-.018-.006-.035-.005-.018-.005-.018-.007-.036-.293-1.297.447-2.597 1.749-2.869l7.5-1.587c1.457-.308 2.528-1.677 2.305-3.151a2.77 2.77 0 0 0-3.307-2.273l-18.505 3.92 9.922 46.849 9.048-9.105c-.305-.372-.546-.789-.625-1.296z" fill="#E95454"/><path fill-rule="evenodd" clip-rule="evenodd" d="M68.8 97.578c19.916 5.711 40.691-5.805 46.402-25.72 5.71-19.916-5.805-40.69-25.72-46.402-19.917-5.71-40.691 5.805-46.402 25.72-5.71 19.917 5.805 40.691 25.72 46.402z" fill="#FFCC5B"/><path fill-rule="evenodd" clip-rule="evenodd" d="M85.218 58.782l-22.852-6.553a3.379 3.379 0 0 1-2.307-4.162l.088-.216.014-.05c.513-1.882 2.482-2.976 4.36-2.437l15.84 4.542c2.097.601 4.396-.421 5.123-2.487.728-2.168-.492-4.525-2.692-5.155l-16.777-4.811c-1.851-.531-2.79-2.482-2.233-4.329l.014-.05.014-.049c.506-1.858 2.334-3.019 4.188-2.487l17.556 5.034c2.073.594 4.372-.428 5.091-2.47a4.014 4.014 0 0 0-2.691-5.155l-12.857-3.686c-14.66 1.645-27.594 11.886-31.912 26.946-4.318 15.06 1.225 30.596 12.79 39.754l16.323 4.68c2.073.595 4.373-.428 5.092-2.469a4.011 4.011 0 0 0-2.692-5.152l-18.57-5.328a3.997 3.997 0 0 1-2.675-5.151c.703-2.045 3.017-3.07 5.096-2.474l7.2 2.064a4.006 4.006 0 0 0 4.843-2.768 4.013 4.013 0 0 0-2.748-4.957l-10.914-3.13c-1.776-.51-2.817-2.383-2.282-4.155l.078-.272c.379-1.787 2.213-2.866 3.965-2.364l24.103 6.911c2.098.602 4.397-.42 5.116-2.462a4.015 4.015 0 0 0-2.692-5.152z" fill="#FDBC4B"/><path fill-rule="evenodd" clip-rule="evenodd" d="M71.76 87.254c-14.194-4.07-22.429-18.93-18.36-33.122 4.07-14.191 18.927-22.427 33.122-18.356 14.194 4.07 22.429 18.93 18.359 33.122-4.069 14.19-18.926 22.426-33.12 18.356z" fill="#FFDB70"/><path opacity=".2" fill-rule="evenodd" clip-rule="evenodd" d="M104.882 68.898c3.926-13.694-3.62-27.98-16.904-32.625l-2.398-.687c-1.582-.454-3.334.328-3.884 1.882a3.063 3.063 0 0 0 2.053 3.933l14.162 4.064a3.047 3.047 0 0 1 2.04 3.929c-.537 1.56-2.3 2.343-3.888 1.888l-5.49-1.575a3.057 3.057 0 0 0-3.695 2.11 3.062 3.062 0 0 0 2.095 3.782l8.324 2.386c1.357.39 2.147 1.82 1.74 3.168l-.058.204c-.291 1.364-1.687 2.184-3.025 1.8l-18.38-5.27c-1.601-.459-3.353.323-3.903 1.877a3.063 3.063 0 0 0 2.053 3.933l17.426 4.996a2.574 2.574 0 0 1 1.759 3.173l-.068.165-.01.037a2.681 2.681 0 0 1-3.325 1.859l-12.081-3.465c-1.6-.459-3.353.323-3.908 1.896-.554 1.653.375 3.451 2.053 3.932l12.794 3.67c1.412.404 2.126 1.893 1.702 3.3l-.01.036-.01.037c-.387 1.418-1.781 2.302-3.193 1.897l-13.388-3.839c-1.582-.453-3.334.328-3.884 1.883a3.061 3.061 0 0 0 2.053 3.932l3.531 1.013c12.387.917 24.164-6.931 27.717-19.321z" fill="#fff"/><path fill-rule="evenodd" clip-rule="evenodd" d="M98.745 60.97l-12.52-3.59-.456-13.019c-.06-1.672-2.225-2.293-3.161-.906l-7.283 10.798-12.52-3.59c-1.61-.461-2.871 1.408-1.838 2.727l8.018 10.264-7.283 10.799c-.936 1.386.45 3.162 2.026 2.59l12.238-4.455 8.018 10.264c1.033 1.319 3.15.548 3.09-1.124l-.453-13.017 12.239-4.456c1.572-.572 1.495-2.824-.115-3.286z" fill="#EC9922"/></svg>