<svg width="15" height="18" fill="none" xmlns="http://www.w3.org/2000/svg"><path d="M10.54 9.07a.557.557 0 0 0-.556-.556h-4.79a.557.557 0 0 0 0 1.114h.713a1 1 0 0 1 1 1v2.928a.667.667 0 0 0 1.334 0v-2.928a1 1 0 0 1 1-1h.743c.308 0 .557-.25.557-.557zm0-1.695a.557.557 0 0 0-.556-.557h-4.79a.557.557 0 0 0 0 1.114h4.79c.308 0 .557-.25.557-.557z" fill="#000"/><path clip-rule="evenodd" d="M12.636 17H2.455A1.455 1.455 0 0 1 1 15.546V2.455C1 1.652 1.652 1 2.455 1H9l5.09 5.09v9.456c0 .802-.65 1.454-1.454 1.454z" stroke="#000" stroke-width="1.5" stroke-linecap="round" stroke-linejoin="round"/></svg>