<svg width="37" height="37" fill="none" xmlns="http://www.w3.org/2000/svg"><path fill-rule="evenodd" clip-rule="evenodd" d="M18.832 36.988c9.939-.007 18.017-8.07 18.043-18.008.026-9.94-8.01-17.991-17.95-17.984C8.988 1.002.91 9.065.884 19.004c-.026 9.939 8.01 17.99 17.949 17.984z" fill="#3B59B4"/><path fill-rule="evenodd" clip-rule="evenodd" d="M21.337 16.92l-11.409.008a1.615 1.615 0 0 1-1.61-1.614l.012-.111v-.025a1.693 1.693 0 0 1 1.694-1.702l7.907-.006c1.047 0 1.974-.777 2.039-1.825a1.926 1.926 0 0 0-1.918-2.021l-8.376.005c-.924 0-1.613-.775-1.598-1.7V7.88c-.01-.924.681-1.702 1.607-1.703l8.764-.005c1.035-.001 1.963-.778 2.027-1.814a1.919 1.919 0 0 0-1.918-2.02l-6.418.003C5.588 5.043.96 11.481.94 19c-.02 7.517 4.575 13.948 11.115 16.638l8.149-.005c1.035-.001 1.962-.778 2.027-1.814a1.917 1.917 0 0 0-1.919-2.02l-9.27.005a1.91 1.91 0 0 1-1.91-2.02c.056-1.037.99-1.817 2.028-1.817l3.594-.003a1.93 1.93 0 0 0 1.873-1.918 1.918 1.918 0 0 0-1.919-1.922l-5.448.003a1.596 1.596 0 0 1-1.598-1.614v-.135a1.523 1.523 0 0 1 1.52-1.616l12.034-.008c1.047 0 1.974-.777 2.039-1.814a1.92 1.92 0 0 0-1.918-2.019z" fill="#1C306D"/><path fill-rule="evenodd" clip-rule="evenodd" d="M18.845 31.836c-7.084.005-12.83-5.755-12.812-12.837.018-7.082 5.796-12.849 12.88-12.853 7.083-.005 12.83 5.755 12.812 12.837-.019 7.082-5.796 12.848-12.88 12.853z" fill="#007DFF"/></svg>