<svg width="20" height="28" fill="none" xmlns="http://www.w3.org/2000/svg"><path fill-rule="evenodd" clip-rule="evenodd" d="M14.173 13.572a4.28 4.28 0 0 1-4.286 4.286 4.28 4.28 0 0 1-4.286-4.286V5.001A4.28 4.28 0 0 1 9.887.715 4.28 4.28 0 0 1 14.173 5v8.571zm2.757 1.214c.114-.7.7-1.214 1.4-1.214.871 0 1.571.772 1.428 1.629-.7 4.285-4.128 7.642-8.442 8.257v2.971c0 .786-.643 1.429-1.429 1.429a1.433 1.433 0 0 1-1.429-1.429v-2.971A9.989 9.989 0 0 1 .016 15.2c-.129-.857.557-1.629 1.428-1.629.7 0 1.286.514 1.4 1.214.586 3.357 3.514 5.929 7.043 5.929 3.528 0 6.457-2.572 7.043-5.929z" fill="#fff"/></svg>