<svg width="34" height="34" fill="none" xmlns="http://www.w3.org/2000/svg"><path fill-rule="evenodd" clip-rule="evenodd" d="M4.9 21.061l-2.434-2.433a2.292 2.292 0 0 1-.675-1.728c.029-.646.328-1.25.825-1.665a22.774 22.774 0 0 1 9.503-4.524 22.388 22.388 0 0 1 9.742-.01 22.67 22.67 0 0 1 9.526 4.537c.495.413.793 1.015.822 1.658a2.3 2.3 0 0 1-.67 1.728L29.1 21.062c-.807.823-2.1.922-3.02.23a14.705 14.705 0 0 0-2.848-1.71 2.29 2.29 0 0 1-1.345-2.077l.002-2.062a18.372 18.372 0 0 0-9.742.01l-.002 2.061a2.302 2.302 0 0 1-1.35 2.08 14.782 14.782 0 0 0-2.851 1.716 2.295 2.295 0 0 1-3.045-.249z" fill="#fff"/></svg>