<svg width="36" height="36" fill="none" xmlns="http://www.w3.org/2000/svg"><path fill-rule="evenodd" clip-rule="evenodd" d="M35.542 8.365l-2.398 8.445 2.398 4.796s-2.189 3.753-13.97 3.231l5.381-8.21-.065-5.137c2.971-.098 5.852-1.19 8.654-3.125z" fill="#E95454"/><path fill-rule="evenodd" clip-rule="evenodd" d="M21.572 24.837s5.735-2.606 7.195-4.587l-3.597-7.194-3.597 1.043v10.739z" fill="#CD494C"/><path fill-rule="evenodd" clip-rule="evenodd" d="M4.265 5.134s12.927-6.047 24.5 1.043v14.075s-4.58-4.485-18.967-2.193L4.265 5.134z" fill="#ED6362"/><path fill-rule="evenodd" clip-rule="evenodd" d="M22.258 11.19h-6.403a.913.913 0 0 1-.906-.905l.011-.062v-.011a.946.946 0 0 1 .948-.959h4.434c.59 0 1.106-.432 1.148-1.021a1.09 1.09 0 0 0-1.085-1.137h-4.697c-.527 0-.906-.432-.906-.96v-.02c0-.517.379-.96.906-.96h2.728c.578 0 1.095-.431 1.127-1.01a1.074 1.074 0 0 0-1.074-1.137h-6.393c-4.635.633-7.831 2.126-7.831 2.126l5.243 12.25h9.074a1.067 1.067 0 0 0 1.043-1.074 1.08 1.08 0 0 0-1.075-1.075h-3.054a.9.9 0 0 1-.906-.905v-.085a.855.855 0 0 1 .853-.905h6.75c.59 0 1.106-.432 1.148-1.012a1.087 1.087 0 0 0-1.083-1.137z" fill="#EF7374"/><path fill-rule="evenodd" clip-rule="evenodd" d="M15.943 35.036c-.56.227-1.2-.042-1.427-.603L2.51 4.621a1.096 1.096 0 0 1 2.03-.824L16.546 33.61a1.094 1.094 0 0 1-.603 1.426z" fill="#FFCC5B"/><path fill-rule="evenodd" clip-rule="evenodd" d="M2.989 5.139a2.132 2.132 0 1 0 0-4.263 2.132 2.132 0 0 0 0 4.263z" fill="#FDBC4B"/></svg>