<svg width="30" height="36" fill="none" xmlns="http://www.w3.org/2000/svg"><path fill-rule="evenodd" clip-rule="evenodd" d="M8.216 15.684L.696 29.78l6.797-.632 3.274 5.974 7.52-14.095-10.07-5.342z" fill="#E95454"/><path fill-rule="evenodd" clip-rule="evenodd" d="M9.028 31.023c.211-.45-.007-.989-.446-1.222l-.43-.229a.919.919 0 0 1-.357-1.231.925.925 0 0 1 1.247-.383l1.216.645a.77.77 0 0 0 1.043-.325l.03-.057a.724.724 0 0 0-.277-1.024L7.417 25.27c-.443-.236-.66-.772-.451-1.224a.927.927 0 0 1 1.27-.425l3.374 1.789a.78.78 0 0 0 1.048-.322l.02-.05.005-.01a.806.806 0 0 0-.33-1.1l-1.893-1.002c-.443-.236-.66-.772-.448-1.23a.93.93 0 0 1 1.27-.424l2.091 1.109c.39.207.859.033 1.062-.36l.006-.012.005-.01c.215-.39.098-.873-.294-1.08l-2.255-1.195c-.438-.232-.654-.768-.446-1.22a.927.927 0 0 1 1.27-.425l5.564 2.95-7.525 14.096-2.054-3.745a.88.88 0 0 0 .322-.357z" fill="#ED6362"/><path fill-rule="evenodd" clip-rule="evenodd" d="M22.202 15.684l7.447 14.08-6.796-.621-3.306 5.977L12.1 21.04l10.102-5.356z" fill="#ED6362"/><path fill-rule="evenodd" clip-rule="evenodd" d="M21.31 31.019c-.21-.451.011-.99.451-1.224l.432-.229a.923.923 0 0 0 .363-1.232.921.921 0 0 0-1.245-.381l-1.22.646a.767.767 0 0 1-1.04-.322l-.03-.058a.727.727 0 0 1 .282-1.024l3.648-1.934c.444-.236.663-.773.458-1.224a.922.922 0 0 0-1.268-.424l-3.383 1.794a.776.776 0 0 1-1.046-.32l-.02-.05-.005-.01a.81.81 0 0 1 .336-1.1l1.898-1.006c.444-.236.663-.773.454-1.23a.926.926 0 0 0-1.268-.423l-2.098 1.114c-.391.208-.858.035-1.06-.36l-.005-.01-.005-.01c-.213-.39-.094-.873.3-1.08l2.26-1.199c.44-.232.658-.77.453-1.22a.922.922 0 0 0-1.268-.424l-5.579 2.958 7.45 14.087 2.073-3.748a.887.887 0 0 1-.319-.357z" fill="#E95454"/><path fill-rule="evenodd" clip-rule="evenodd" d="M15.174 25.855c6.905-.005 12.518-5.602 12.536-12.503.018-6.9-5.565-12.49-12.47-12.485C8.332.87 2.72 6.469 2.702 13.369c-.018 6.9 5.565 12.49 12.47 12.486z" fill="#FFCC5B"/><path fill-rule="evenodd" clip-rule="evenodd" d="M16.914 11.922l-7.926.005c-.616 0-1.12-.504-1.12-1.12l.01-.077v-.017A1.176 1.176 0 0 1 9.054 9.53l5.494-.004c.727 0 1.372-.54 1.417-1.268a1.338 1.338 0 0 0-1.333-1.403l-5.82.004c-.642 0-1.12-.538-1.11-1.18v-.034c-.007-.642.474-1.182 1.117-1.182l6.09-.004c.718 0 1.363-.54 1.408-1.26a1.332 1.332 0 0 0-1.333-1.402l-4.46.003C5.972 3.676 2.756 8.146 2.742 13.365c-.013 5.22 3.18 9.684 7.723 11.552l5.662-.004c.72 0 1.364-.54 1.409-1.26a1.332 1.332 0 0 0-1.333-1.401l-6.441.003c-.76 0-1.37-.634-1.328-1.403.04-.72.688-1.26 1.41-1.261l2.497-.002a1.332 1.332 0 1 0-.032-2.666l-3.785.002a1.107 1.107 0 0 1-1.11-1.12v-.095a1.057 1.057 0 0 1 1.056-1.12l8.36-.006c.728 0 1.372-.54 1.417-1.259a1.333 1.333 0 0 0-1.333-1.402z" fill="#FDBC4B"/><path fill-rule="evenodd" clip-rule="evenodd" d="M15.184 22.277c-4.922.003-8.916-3.995-8.903-8.912.013-4.917 4.027-8.92 8.95-8.924 4.92-.003 8.914 3.996 8.901 8.913-.013 4.917-4.027 8.92-8.949 8.923z" fill="#FFDB70"/><path opacity=".2" fill-rule="evenodd" clip-rule="evenodd" d="M24.13 13.357c.012-4.747-3.71-8.626-8.394-8.89h-.832c-.548 0-1.04.412-1.074.96a1.017 1.017 0 0 0 1.017 1.07l4.913-.002c.58 0 1.045.483 1.012 1.07-.03.55-.524.962-1.075.963h-1.905a1.017 1.017 0 1 0 .024 2.034l2.887-.001c.47 0 .855.385.847.854v.07a.806.806 0 0 1-.806.855l-6.377.005c-.555 0-1.046.411-1.08.96a1.017 1.017 0 0 0 1.016 1.07l6.045-.004c.47 0 .855.385.853.854l-.006.059v.013a.897.897 0 0 1-.898.901l-4.19.003c-.555 0-1.046.412-1.081.966a1.02 1.02 0 0 0 1.016 1.07l4.439-.002c.49 0 .854.41.846.9v.025c.005.49-.361.901-.85.902l-4.645.003c-.549 0-1.04.412-1.074.96a1.016 1.016 0 0 0 1.016 1.07H17c4.057-.847 7.12-4.444 7.131-8.738z" fill="#fff"/><path fill-rule="evenodd" clip-rule="evenodd" d="M21.443 11.382l-4.34.002L15.77 7.26c-.171-.53-.923-.53-1.096 0l-1.352 4.127-4.341.003c-.559 0-.793.714-.342 1.042l3.505 2.547-1.352 4.127c-.173.53.433.97.886.642l3.518-2.552 3.505 2.548c.451.327 1.06-.114.889-.644l-1.33-4.125 3.518-2.552c.452-.328.222-1.042-.336-1.041z" fill="#EC9922"/></svg>