<svg width="26" height="27" fill="none" xmlns="http://www.w3.org/2000/svg"><path fill-rule="evenodd" clip-rule="evenodd" d="M19.43 13.432c0-1.995-.861-3.732-2.248-4.878-.564-.466-1.324.003-1.324.734v1.573l3.571 3.571v-1zm3.57 0c0 1.286-.285 2.572-.714 3.715l2.143 2.143c1-1.715 1.429-3.857 1.429-6a12.89 12.89 0 0 0-8.796-12.237c-.608-.202-1.204.274-1.204.915v1.037c0 .427.273.803.666.967 3.795 1.582 6.477 5.138 6.477 9.46zM2.709 1.292a1 1 0 0 0-1.419-.005l-.438.438a1 1 0 0 0 0 1.415l6.007 6.007H1.144a1 1 0 0 0-1 1v6.571a1 1 0 0 0 1 1h4.714l5.436 5.436c.63.63 1.707.184 1.707-.707V15.29l6.143 6.143c-.818.584-1.636 1.072-2.61 1.465-.399.161-.676.54-.676.97v1.042c0 .636.589 1.113 1.195.92 1.502-.481 2.841-1.232 4.09-2.255l2.15 2.15a1 1 0 0 0 1.415 0l.443-.443a1 1 0 0 0 0-1.414L13 11.718 2.708 1.292zM13 4.418c0-.89-1.077-1.337-1.707-.707L10 5.004l3 3V4.418z" fill="#fff"/></svg>