<svg width="118" height="42" fill="none" xmlns="http://www.w3.org/2000/svg"><path fill-rule="evenodd" clip-rule="evenodd" d="M2.252 19.325h1.099v3.35H2.252a18.68 18.68 0 0 0 37.21 0h-1.098v-3.35h1.099a18.68 18.68 0 0 0-37.21 0zM20.857 1a20.001 20.001 0 0 1 19.93 18.325h.928v3.35h-.928a20 20 0 0 1-39.86 0H0v-3.35h.928A20 20 0 0 1 20.858 1z" fill="#fff"/><path d="M19.967 20.92c0 .731-.127 1.406-.381 2.026a4.734 4.734 0 0 1-1.062 1.603 4.89 4.89 0 0 1-1.658 1.054c-.643.25-1.357.375-2.143.375h-3.927V15.87h3.927c.786 0 1.5.127 2.143.381a4.89 4.89 0 0 1 1.658 1.055c.458.448.812.983 1.062 1.602.254.616.381 1.286.381 2.012zm-2.4 0c0-.5-.065-.95-.194-1.353a2.823 2.823 0 0 0-.562-1.02 2.344 2.344 0 0 0-.888-.645 2.987 2.987 0 0 0-1.2-.229h-1.568v6.501h1.568c.448 0 .848-.074 1.2-.222.351-.153.647-.368.888-.645a2.91 2.91 0 0 0 .562-1.027c.13-.402.194-.856.194-1.36zm13.705 0c0 .731-.127 1.41-.382 2.04a4.909 4.909 0 0 1-1.061 1.644 4.902 4.902 0 0 1-1.658 1.09c-.643.263-1.358.395-2.144.395s-1.503-.132-2.15-.396a4.977 4.977 0 0 1-1.665-1.089 4.998 4.998 0 0 1-1.069-1.644 5.477 5.477 0 0 1-.375-2.04c0-.73.125-1.41.375-2.04a4.922 4.922 0 0 1 1.069-1.637 4.979 4.979 0 0 1 1.665-1.089c.647-.263 1.364-.395 2.15-.395.786 0 1.501.134 2.144.402.647.264 1.2.627 1.658 1.09a4.835 4.835 0 0 1 1.061 1.637c.255.629.382 1.306.382 2.032zm-2.4 0c0-.5-.065-.948-.195-1.346a2.824 2.824 0 0 0-.562-1.02 2.377 2.377 0 0 0-.888-.638 3.068 3.068 0 0 0-1.2-.222 3.14 3.14 0 0 0-1.214.222 2.44 2.44 0 0 0-.895.639c-.24.277-.425.617-.555 1.02-.13.397-.194.846-.194 1.345 0 .504.065.958.194 1.36.13.398.315.735.555 1.013.245.277.544.49.895.638.356.144.76.215 1.214.215a3.14 3.14 0 0 0 1.2-.215c.352-.148.648-.36.888-.638a2.83 2.83 0 0 0 .562-1.013c.13-.402.195-.856.195-1.36zm32.036-8.63a6.97 6.97 0 0 1-.504 2.672 6.245 6.245 0 0 1-1.4 2.114 6.454 6.454 0 0 1-2.187 1.391c-.848.33-1.791.494-2.828.494h-5.18V5.626h5.18c1.037 0 1.98.168 2.828.504.854.335 1.583.8 2.187 1.391a6.129 6.129 0 0 1 1.4 2.114c.336.812.504 1.696.504 2.654zm-3.167 0c0-.66-.085-1.255-.256-1.785a3.72 3.72 0 0 0-.741-1.346 3.092 3.092 0 0 0-1.172-.85c-.464-.202-.991-.303-1.583-.303H51.92v8.576h2.069c.592 0 1.12-.098 1.583-.293a3.227 3.227 0 0 0 1.172-.851 3.82 3.82 0 0 0 .74-1.355 5.84 5.84 0 0 0 .257-1.794zm11.575 1.574l-1.236-3.652a16.205 16.205 0 0 1-.292-.815 26.958 26.958 0 0 1-.311-1.025 14.463 14.463 0 0 1-.586 1.858l-1.227 3.633h3.652zm4.915 5.097h-2.398c-.269 0-.485-.06-.65-.183a1.227 1.227 0 0 1-.375-.485l-.787-2.324h-5.07l-.788 2.324a1.13 1.13 0 0 1-.366.467c-.17.134-.384.201-.64.201H60.74l5.162-13.335h3.167l5.162 13.335zm5.389-7.065c.421 0 .778-.052 1.071-.156.3-.11.543-.26.732-.448.19-.19.327-.41.412-.66.086-.255.128-.53.128-.823 0-.586-.192-1.043-.576-1.373-.379-.33-.967-.494-1.767-.494h-1.244v3.954h1.244zm6.572 7.065h-2.8c-.52 0-.892-.195-1.117-.585l-2.215-3.872a1.028 1.028 0 0 0-.348-.357c-.128-.08-.311-.119-.55-.119h-.786v4.933h-3.094V5.626h4.338c.964 0 1.785.101 2.462.302.684.196 1.239.47 1.666.824.433.354.747.772.943 1.254a4.16 4.16 0 0 1 .293 1.574c0 .433-.058.842-.174 1.227a3.85 3.85 0 0 1-.513 1.07 3.91 3.91 0 0 1-.842.87 4.39 4.39 0 0 1-1.144.631 2.7 2.7 0 0 1 .567.394c.177.152.336.335.476.55l2.838 4.64zm6.794-5.071v5.071h-3.094v-5.07L85.06 5.626h2.727c.269 0 .48.065.632.193.158.122.29.28.393.476l1.886 3.88c.158.305.302.592.43.86.128.263.24.522.338.778a10.57 10.57 0 0 1 .733-1.638l1.867-3.88c.042-.08.094-.16.155-.238a1.1 1.1 0 0 1 .21-.21.988.988 0 0 1 .284-.156.976.976 0 0 1 .357-.065h2.746l-4.832 8.265zm17.516-8.264v13.335h-1.611c-.238 0-.44-.036-.604-.11a1.54 1.54 0 0 1-.476-.402l-6.288-7.954c.025.238.04.47.046.696.012.22.018.427.018.622v7.148H98.86V5.626h1.629c.134 0 .247.007.339.019a.78.78 0 0 1 .247.073c.073.03.143.076.21.137.067.061.144.144.229.247l6.343 8.009a12.926 12.926 0 0 1-.083-1.428V5.626h2.728zm1.873 11.898c0-.22.04-.424.119-.613.085-.189.198-.354.339-.494a1.6 1.6 0 0 1 .512-.33c.195-.085.409-.128.641-.128.225 0 .436.043.631.128.195.08.366.19.513.33.146.14.259.305.338.494.086.19.129.394.129.613 0 .22-.043.427-.129.623a1.455 1.455 0 0 1-.338.494c-.147.14-.318.25-.513.33a1.66 1.66 0 0 1-.631.118c-.232 0-.446-.04-.641-.119a1.602 1.602 0 0 1-.512-.329 1.637 1.637 0 0 1-.339-.494 1.643 1.643 0 0 1-.119-.623zM62.55 29.41a7.11 7.11 0 0 1-.502 2.69 6.478 6.478 0 0 1-1.4 2.17 6.467 6.467 0 0 1-2.188 1.436c-.848.348-1.791.522-2.828.522-1.038 0-1.983-.174-2.837-.522a6.567 6.567 0 0 1-2.197-1.437 6.594 6.594 0 0 1-1.41-2.169 7.225 7.225 0 0 1-.494-2.69c0-.965.165-1.862.495-2.691a6.48 6.48 0 0 1 1.409-2.16 6.567 6.567 0 0 1 2.197-1.437c.854-.348 1.8-.522 2.837-.522 1.037 0 1.98.177 2.828.53a6.468 6.468 0 0 1 2.187 1.438 6.38 6.38 0 0 1 1.4 2.16c.336.83.504 1.723.504 2.681zm-3.166 0c0-.66-.085-1.251-.256-1.776a3.72 3.72 0 0 0-.741-1.346 3.137 3.137 0 0 0-1.172-.842c-.464-.195-.991-.292-1.583-.292-.598 0-1.132.097-1.602.292a3.22 3.22 0 0 0-1.18.842 3.803 3.803 0 0 0-.733 1.346 5.745 5.745 0 0 0-.256 1.775c0 .665.085 1.263.256 1.794.171.525.415.97.733 1.336.323.367.716.647 1.18.842.47.19 1.004.284 1.602.284.592 0 1.12-.094 1.583-.284a3.136 3.136 0 0 0 1.172-.842c.323-.366.57-.811.74-1.336.172-.53.257-1.129.257-1.794zm16.629-6.663V36.08h-1.61c-.239 0-.44-.036-.605-.11a1.548 1.548 0 0 1-.476-.402l-6.287-7.954c.024.239.04.47.045.696.013.22.019.427.019.622v7.148H64.37V22.746H66c.134 0 .246.007.338.019a.776.776 0 0 1 .247.073c.073.03.144.076.21.137.068.061.144.144.23.247l6.342 8.009a11.08 11.08 0 0 1-.064-.742 13.79 13.79 0 0 1-.018-.686v-7.056h2.727zM86.636 33.61v2.471H78.6V22.746h3.094V33.61h4.942zm4.693 2.471h-3.112V22.746h3.112v13.335zm14.214-13.334V36.08h-1.611c-.238 0-.439-.036-.604-.11a1.56 1.56 0 0 1-.476-.402l-6.287-7.954c.024.239.04.47.046.696.012.22.018.427.018.622v7.148h-2.727V22.746h1.629c.134 0 .247.007.338.019a.776.776 0 0 1 .247.073c.074.03.144.076.21.137.068.061.144.144.23.247l6.342 8.009a11.282 11.282 0 0 1-.082-1.428v-7.056h2.727zm5.699 2.379v3.112h4.192v2.288h-4.192v3.176h5.473v2.38h-8.585V22.746h8.585v2.38h-5.473z" fill="#fff"/></svg>