<svg width="82" height="83" fill="none" xmlns="http://www.w3.org/2000/svg"><path d="M62.87 44.352l-.463 4.174-.313 2.813H22.719l-.313-2.813-.464-4.174a21.637 21.637 0 0 1 1.617-10.911 21.658 21.658 0 0 0 1.723-9.603l-.245-4.866a17.39 17.39 0 1 1 34.738 0l-.244 4.866a21.658 21.658 0 0 0 1.723 9.603 21.627 21.627 0 0 1 1.617 10.91z" fill="#454B69"/><path opacity=".1" d="M62.87 44.352l-.463 4.174H46.625V33.058l2.812-5.625v-11.25A15.484 15.484 0 0 0 38.057 1.26a17.41 17.41 0 0 1 21.718 17.711l-.244 4.866a21.658 21.658 0 0 0 1.723 9.603 21.626 21.626 0 0 1 1.617 10.91z" fill="#000"/><path d="M50 45.714a1.969 1.969 0 0 1-1.969-1.969v-9.281h-11.25v9.281a1.966 1.966 0 0 1-1.968 1.969h-2.25v8.437H52.25v-8.437H50z" fill="#FFDCAD"/><path d="M43.254 41.495a7.715 7.715 0 0 0 4.777-1.724v-5.307h-11.25v5.307a7.716 7.716 0 0 0 4.777 1.724h1.696z" fill="#FEB784"/><path d="M55.063 18.995v7.031a12.656 12.656 0 1 1-25.313 0v-7.03a19.078 19.078 0 0 0 6.486-7.348l.545-1.09.798.666a35.024 35.024 0 0 0 11.858 6.486 35.07 35.07 0 0 0 5.626 1.285z" fill="#FFDCAD"/><path d="M55.063 18.995v7.031A12.663 12.663 0 0 1 44.82 38.452a15.411 15.411 0 0 0 4.617-11.02V17.71a35.068 35.068 0 0 0 5.625 1.285z" fill="#FEC093"/><path d="M36.078 24.62a2.11 2.11 0 1 1 0-4.218 2.11 2.11 0 0 1 0 4.218zm12.656 0a2.11 2.11 0 1 1 0-4.218 2.11 2.11 0 0 1 0 4.218z" fill="#7A432A"/><path d="M42.406 35.147a4.224 4.224 0 0 1-3.985-2.838c-.255-.734.397-1.381 1.173-1.381h.302c.61 0 1.085.563 1.516.994a1.406 1.406 0 0 0 1.989 0c.43-.431.906-.994 1.516-.994h.301c.777 0 1.428.647 1.173 1.38a4.223 4.223 0 0 1-3.985 2.839z" fill="#C06100"/><path d="M71.053 82.218a4.269 4.269 0 0 1-4.74-2.832l-9.289-17.425a10.95 10.95 0 0 1-1.961 10.472v11.25H29.75v-11.25a10.968 10.968 0 0 1-1.94-10.602l-9.44 17.555a4.267 4.267 0 0 1-8.102-2.678l10.326-25.701a8.435 8.435 0 0 1 7.829-5.293h5.546l8.437 15.469 8.438-15.47h5.525a8.444 8.444 0 0 1 7.84 5.322l10.207 25.673a4.268 4.268 0 0 1-3.363 5.51z" fill="#007AFF"/><path d="M9.048 77.18l1.014-13.185H18.5v13.548a4.733 4.733 0 1 1-9.452-.363z" fill="#007AFF"/><path d="M13.37 43.481a2.735 2.735 0 0 0-1.782 3.877l1.287 2.574h-5.04a8.439 8.439 0 0 1-3.773-.89l-1.401-.701a1.688 1.688 0 0 0-2.442 1.51v3.968a2.812 2.812 0 0 0 1.555 2.516l2.288 1.144a8.439 8.439 0 0 0 3.774.89H18.5v-8.437l-1.926-4.814a2.735 2.735 0 0 0-3.203-1.637z" fill="#FFDCAD"/><path opacity=".1" d="M10.063 58.37H18.5v5.625h-8.438V58.37z" fill="#007AFF"/><path opacity=".08" d="M71.053 82.218a4.269 4.269 0 0 1-4.74-2.832l-9.289-17.425a10.95 10.95 0 0 1-1.961 10.471v11.25h-24.85c11.606-7.58 21.399-17.198 29.618-37.223a8.424 8.424 0 0 1 4.377 4.576l10.208 25.672a4.268 4.268 0 0 1-3.363 5.511z" fill="#000"/><path d="M62.094 78.058L48.03 75.245V55.558l14.063 2.812v19.688z" fill="#494F71"/><path d="M67.719 78.058l14.062-2.813V55.558L67.72 58.37v19.688z" fill="#3F3D56"/><path d="M62.094 58.37h5.625v19.688h-5.625V58.37z" fill="#454B69"/><path d="M64.906 58.37a4.98 4.98 0 0 0-4.161-4.912l-12.714-2.12v4.22l14.063 2.812h2.812a4.98 4.98 0 0 1 4.161-4.912l12.714-2.12v4.22L67.72 58.37h-2.813z" fill="#FBE19F"/><path d="M79.2 77.923l-5.625.938a1.408 1.408 0 0 1-1.638-1.387v-5.227a1.83 1.83 0 0 1 1.53-1.806l4.776-.796a1.83 1.83 0 0 1 2.132 1.806v5.085a1.406 1.406 0 0 1-1.175 1.387z" fill="#FEC9A3"/></svg>