<svg width="71" height="75" fill="none" xmlns="http://www.w3.org/2000/svg"><path d="M61.725 52.868l-10.929-2.042a1.228 1.228 0 0 0-.214-.02h-30.29c-.073 0-.144.008-.215.02L9.05 52.892C3.427 54.467.485 60.005.485 64.663v6.384c0 2.33 2.09 4.226 4.66 4.226h60.583c2.57 0 4.66-1.896 4.66-4.226v-6.384c0-4.658-2.94-10.196-8.663-11.795z" fill="#007AFF"/><path d="M41.084 75.272l-2.168-13.006a1.165 1.165 0 0 0-1.15-.974h-4.66c-.57 0-1.055.412-1.149.974L29.79 75.272h11.294z" fill="#B097FF"/><path d="M33.107 61.292c-.298 0-.569.116-.777.304l7.77 7.77-.66-3.955-4.119-4.119h-2.214z" fill="#7047F0"/><path d="M40.089 55.489a1.165 1.165 0 0 0-1.165-1.163h-5.825c-.442 0-.845.25-1.042.644L30.89 57.3a1.15 1.15 0 0 0-.122.526l.008 2.303a3.499 3.499 0 0 0 3.495 3.494h2.33a3.5 3.5 0 0 0 3.495-3.498l-.008-4.636z" fill="#7047F0"/><path d="M35.997 50.979l-10.478-5.85a1.164 1.164 0 0 0-1.497.316l-4.397 5.825c-.3.398-.316.943-.036 1.355l7.103 10.484a2.323 2.323 0 0 0 1.931 1.022c.614 0 1.204-.241 1.644-.68.03-.03.058-.062.084-.095l4.828-5.993c.052-.064.097-.135.134-.209l1.157-2.306c.082-.161.124-.341.124-.522v-2.33c0-.422-.229-.811-.597-1.017z" fill="#F2F2F2"/><path d="M34.861 50.979l10.477-5.85a1.164 1.164 0 0 1 1.498.316l4.397 5.825c.3.398.315.943.035 1.355L44.165 63.11a2.323 2.323 0 0 1-1.93 1.022 2.322 2.322 0 0 1-1.644-.68 1.097 1.097 0 0 1-.085-.095l-4.827-5.993a1.087 1.087 0 0 1-.134-.209l-1.157-2.306a1.155 1.155 0 0 1-.124-.522v-2.33c0-.422.228-.811.597-1.017z" fill="#F2F2F2"/><path d="M51.74 22.87l-2.299-2.33s-7.896-2.137-24.498 0l-6.99 2.33v8.155c0 11.581 7.824 20.97 17.476 20.97 9.651 0 17.475-9.389 17.475-20.97v-8.156c-.301.337-1.165 0-1.165 0z" fill="#FFDCAD"/><path d="M33.623 46.287a7.41 7.41 0 0 1-2.523-1.48 1.253 1.253 0 1 1 1.683-1.857c.412.372 1.543 1.234 3.157 1.2 1.234-.028 2.152-.575 2.589-.898a1.253 1.253 0 1 1 1.491 2.014c-.676.5-2.097 1.347-4.025 1.39a6.834 6.834 0 0 1-2.372-.37z" fill="#C06100"/><path d="M28.415 35.686a4.66 4.66 0 1 0 0-9.32 4.66 4.66 0 0 0 0 9.32zm13.98 0a4.66 4.66 0 1 0 0-9.32 4.66 4.66 0 0 0 0 9.32z" fill="#AEEFFF"/><path d="M37.79 32.19a1.164 1.164 0 0 1-1.164-1.165 1.166 1.166 0 0 0-2.33 0 1.164 1.164 0 1 1-2.33 0 3.499 3.499 0 0 1 3.495-3.495 3.499 3.499 0 0 1 3.495 3.495c0 .644-.522 1.166-1.165 1.166zm-13.98-1.166h-5.857a1.164 1.164 0 1 1 0-2.33h5.857a1.164 1.164 0 1 1 0 2.33zm29.095 0H47.11a1.164 1.164 0 1 1 0-2.33h5.794a1.164 1.164 0 1 1 0 2.33z" fill="#7047F0"/><path d="M28.47 36.85a5.832 5.832 0 0 1-5.825-5.826A5.832 5.832 0 0 1 28.47 25.2a5.832 5.832 0 0 1 5.826 5.825 5.832 5.832 0 0 1-5.826 5.826zm0-9.32a3.5 3.5 0 0 0-3.495 3.494 3.5 3.5 0 0 0 3.495 3.496 3.499 3.499 0 0 0 3.495-3.496 3.499 3.499 0 0 0-3.495-3.495zm13.981 9.32a5.832 5.832 0 0 1-5.825-5.826A5.832 5.832 0 0 1 42.45 25.2a5.832 5.832 0 0 1 5.825 5.825 5.832 5.832 0 0 1-5.825 5.826zm0-9.32a3.5 3.5 0 0 0-3.495 3.494 3.5 3.5 0 0 0 3.495 3.496 3.5 3.5 0 0 0 3.495-3.496 3.5 3.5 0 0 0-3.495-3.495z" fill="#7047F0"/><path d="M58.738 31.001a1.164 1.164 0 0 1-1.165-1.165v-13.89a1.164 1.164 0 1 1 2.33 0v13.89c0 .644-.521 1.165-1.165 1.165z" fill="#3E435E"/><path d="M62.524 9.514L38.826 1.389a12.331 12.331 0 0 0-7.963 0L7.165 9.514a2.98 2.98 0 0 0-2.039 2.854c0 1.31.8 2.43 2.04 2.855l11.587 3.973c.122.04.25.063.378.063h.015l32.616-.408a1.16 1.16 0 0 0 .363-.063l10.4-3.565a2.98 2.98 0 0 0 2.038-2.855c0-1.31-.8-2.429-2.039-2.854z" fill="#3E435E"/><path d="M31.442 21.29a54.924 54.924 0 0 1 7.992 0c4.744.275 10.38 1.059 13.48 2.744v-9.32c0-4.003-9.06-5.825-17.476-5.825-8.417 0-17.476 1.822-17.476 5.825v9.32c3.099-1.685 8.735-2.47 13.48-2.743z" fill="#454B69"/><path d="M35.437 15.345c-5.056 0-13.431.665-17.476 2.865v2.96c0-1.015 6.125-3.495 17.476-3.495 11.351 0 17.476 2.48 17.476 3.495v-2.96c-4.045-2.2-12.42-2.865-17.476-2.865z" fill="#646E9F"/><path d="M35.429 15.345v2.33h.008c11.35 0 17.475 2.48 17.475 3.495v-2.96c-4.044-2.2-12.42-2.865-17.475-2.865h-.008z" fill="#4B506C"/><path d="M59.895 38.016h-2.33A1.165 1.165 0 0 1 56.4 36.85v-4.66a2.33 2.33 0 1 1 4.66 0v4.66c0 .643-.522 1.165-1.165 1.165z" fill="#FFDC64"/><path d="M12.136 67.483a9.32 9.32 0 0 0-2.73-6.59l-5.173-5.174C1.765 58.166.486 61.6.486 64.663v6.384c0 2.33 2.09 4.226 4.66 4.226h6.99v-7.79zM66.63 55.73l-5.162 5.162a9.32 9.32 0 0 0-2.73 6.59v7.79h6.99c2.57 0 4.66-1.895 4.66-4.225v-6.384c0-3.054-1.273-6.481-3.757-8.933z" fill="#F2F2F2"/><path d="M31.537 64.79l-.47 2.823 7.658 7.66h2.359l-.188-1.124-9.359-9.36zm-1.511 9.065l1.419 1.418h3.294l-4.242-4.243-.47 2.825z" fill="#7047F0"/></svg>