<svg width="44" height="79" fill="none" xmlns="http://www.w3.org/2000/svg"><path d="M41.638 10.514c0 5.608-4.547 10.155-10.155 10.155-5.609 0-10.155-4.547-10.155-10.155S25.874.359 31.483.359c5.608 0 10.155 4.547 10.155 10.155z" fill="#3C3B41"/><path d="M43.423 72.63v9.506c0 .68-.554 1.234-1.234 1.234H4.124c-.68 0-1.234-.553-1.234-1.234V72.63c0-4.818 3.165-9.064 7.784-10.439l2.19-.651a4.653 4.653 0 0 0 2.614-1.984 4.58 4.58 0 0 0 .565-1.295c.104-.384.158-.787.158-1.198V52.63l12.828-2.157v6.266c0 1.192.453 2.303 1.217 3.142a4.692 4.692 0 0 0 2.122 1.335l3.273.974a10.89 10.89 0 0 1 7.782 10.44z" fill="#FFDBA9"/><path d="M35.64 62.19l-3.272-.974a4.691 4.691 0 0 1-2.122-1.336 4.662 4.662 0 0 1-1.216-3.14v-6.267L16.2 52.63v2.537l8.08-1.358v6.267c0 1.19.453 2.302 1.216 3.14a4.692 4.692 0 0 0 2.123 1.336l3.271.974a10.89 10.89 0 0 1 7.783 10.44v7.404h3.517c.68 0 1.233-.553 1.233-1.234V72.63a10.89 10.89 0 0 0-7.783-10.44z" fill="#FFC473"/><path d="M29.03 50.473v5.88a13.912 13.912 0 0 1-7.931 2.465h-1.131a13.96 13.96 0 0 1-3.924-.558c.103-.384.157-.787.157-1.198V52.63l12.829-2.157z" fill="#FFC473"/><path d="M35.092 15.604V40.48c0 7.729-6.264 13.994-13.993 13.994h-1.131c-7.727 0-13.993-6.265-13.993-13.994V15.605h29.117z" fill="#FFDBA9"/><path d="M35.61 37.72h-.518v-9.29h.518a4.644 4.644 0 0 1 0 9.29z" fill="#FFC473"/><path d="M13.392 31.193a1.447 1.447 0 1 1-2.894 0 1.447 1.447 0 0 1 2.894 0zm11.578 0a1.447 1.447 0 1 1-2.895 0 1.447 1.447 0 0 1 2.894 0z" fill="#57555C"/><path d="M17.389 46.75a7.41 7.41 0 0 1-2.866-.584 1.253 1.253 0 1 1 .992-2.302c.51.219 1.859.67 3.375.114 1.16-.425 1.85-1.24 2.16-1.686a1.253 1.253 0 1 1 2.062 1.423c-.478.693-1.55 1.953-3.36 2.617a6.834 6.834 0 0 1-2.363.418z" fill="#C06100"/><path d="M14.73 36.292H6.153a1.847 1.847 0 0 1-1.845-1.845v-6.003c0-1.017.828-1.844 1.845-1.844h8.575c1.018 0 1.845.827 1.845 1.845v6.002a1.847 1.847 0 0 1-1.845 1.845zm-7.914-2.506h7.252v-4.68H6.816v4.68zm22.809 2.508H20.48a1.847 1.847 0 0 1-1.845-1.846v-6.003c0-1.017.827-1.844 1.845-1.844h9.146c1.017 0 1.845.827 1.845 1.844v6.003a1.847 1.847 0 0 1-1.845 1.846zm-8.485-2.507h7.824v-4.68H21.14v4.68z" fill="#7047F0"/><path d="M19.887 31.216H15.32a1.253 1.253 0 1 1 0-2.507h4.566a1.253 1.253 0 1 1 0 2.507zM35.092 26.6v2.506h-5.506a1.253 1.253 0 1 1 0-2.506h5.506z" fill="#7047F0"/><path d="M36.5 21.18a16.106 16.106 0 0 1-.811 5.306c-.36 1.085-1.958.843-1.984-.3 0-.054-.002-.107-.003-.16-.2-5.457-4.614-9.905-10.068-10.143a10.55 10.55 0 0 0-10.41 7c-.02.05-.036.102-.055.154a11.354 11.354 0 0 1-6.537 6.753 11.267 11.267 0 0 1-4.131.777c-.75 0-1.482-.072-2.19-.212 1.84-1.57 3.23-3.71 3.796-6.153.11-.474.188-.963.234-1.46a15.811 15.811 0 0 1-.027-2.253v-.005a16.55 16.55 0 0 1 .292-2.278 16.064 16.064 0 0 1 4.42-8.202 16.06 16.06 0 0 1 11.707-4.692C29.36 5.49 36.377 12.55 36.5 21.18z" fill="#57555C"/><path d="M14.052 14.942c-1.133.16-4.997.94-7.151 4.311-.289.453-.55 1.06-.827 1.701-.49 1.142-1.034 2.408-1.967 3.249.11-.475.189-.963.234-1.459a15.814 15.814 0 0 1-.027-2.255v-.005c.045-.775.144-1.535.292-2.277.06-.104.12-.206.183-.305 2.73-4.273 7.513-5.245 8.914-5.442a1.254 1.254 0 0 1 .349 2.482z" fill="#3C3B41"/><path d="M35.64 62.19l-3.032-.903V83.37h9.582c.68 0 1.233-.553 1.233-1.234V72.63c0-4.818-3.165-9.064-7.782-10.44z" fill="#007AFF"/><path d="M35.64 62.19l-2.058-.613-.974-.29v4.914a10.892 10.892 0 0 1 6.064 9.764v7.404h3.518a1.235 1.235 0 0 0 1.232-1.233v-9.508a10.891 10.891 0 0 0-7.781-10.438z" fill="#0070EB"/><path d="M12.255 61.72l-1.581.47A10.893 10.893 0 0 0 2.89 72.63v9.507c0 .68.553 1.232 1.234 1.232h8.132v-21.65h-.001z" fill="#007DFF"/><path d="M12.255 70.257h20.353v13.112H12.255V70.257z" fill="#F2F2F2"/></svg>