<svg width="375" height="222" fill="none" xmlns="http://www.w3.org/2000/svg"><g clip-path="url(#clip0)"><path d="M371 205.969a69.083 69.083 0 0 1-5.351 11.186 48.26 48.26 0 0 1-3.242 4.845H0c.326-.276 2.24-1.96 5.218-4.845a215.147 215.147 0 0 0 7.826-7.986l38.197-8.577a6.834 6.834 0 0 1 1.5-.167l40.722-.063h.042l20.17-.029h.045l17.023-.021H153.3l46.77-.071h20.125l8.032-.099h2.654l23.363-.036h11.048l26.986-.039h8.035l25.56-.039 21.575-.028c.601 0 1.2.078 1.784.23L371 205.969z" fill="#F2F2F2"/><path d="M226.846 107.106l-.789.153-35.675 6.821c-10.362 1.981-20.874 3.973-31.399 3.212-7.625-.552-14.749-2.802-22.075-4.776-4.141-1.118-8.531-1.564-9.936-6.177-1.937-6.368 1.216-15.797 1.959-22.25.711-6.333 1.131-12.825-.135-19.084a33.871 33.871 0 0 0-1.109-4.153c-1.269-3.747-3.263-7.642-2.186-11.445.849-3.018 3.441-5.173 5.865-7.168 4.749-3.892 9.598-8.254 11.482-14.088.924-2.83 1.098-5.877 2.094-8.686 1.887-5.342 6.629-9.336 11.904-11.452 5.276-2.115 11.077-2.565 16.768-2.565 5.025 0 10.045.333 15.026.994 5.431.708 10.913 1.872 15.687 4.554 4.774 2.681 8.798 7.075 9.91 12.432 1.575 7.575-2.797 15.641-.451 22.996 1.18 3.719 3.91 6.722 5.805 10.126a24.01 24.01 0 0 1 1.777 18.75c-2.268 6.995-7.82 14.07-4.976 20.853 1.809 4.313 6.43 6.616 9.651 10.034.286.306.554.613.803.919z" fill="#A9ADB1"/><path opacity=".1" d="M226.057 106.215v1.043l-35.675 6.821c-10.362 1.982-20.874 3.973-31.399 3.213-7.625-.552-14.749-2.802-22.075-4.776-4.141-1.118-8.531-1.564-9.936-6.178-1.937-6.368 1.216-15.796 1.959-22.25.711-6.332 11.656-29.452 10.391-35.711l65.407 2.83c.44 3.457 17.727 20.807 16.65 24.122-2.268 6.994-7.82 14.07-4.977 20.852 1.813 4.313 6.434 6.616 9.655 10.034z" fill="#000"/><path d="M159.228 88.71c.388 2.19.594 4.598-.53 6.509-1.496 2.561-4.759 3.379-7.678 3.959l-10.131 2.016c-.689.138-1.422.294-1.937.765-.608.541-.814 1.397-.903 2.204-.409 3.651.889 7.249 2.072 10.727 2.393 7.044 4.401 14.236 7.426 21.032 3.025 6.797 7.177 13.285 13.103 17.828 5.926 4.543 13.767 6.963 21.023 5.187 6.32-1.547 11.503-5.987 15.971-10.696 3.686-3.891 7.134-8.137 8.922-13.185 1.234-3.468 1.636-7.161 2.023-10.819l1.799-16.827c.281-2.632.465-5.593-1.251-7.613-.754-.888-1.778-1.479-2.823-2.027-3.889-2.056-7.984-3.754-11.603-6.23-3.618-2.477-6.828-5.888-7.927-10.119-.657-2.54-.54-5.307-1.66-7.674-1.251-2.653-3.91-4.45-6.754-5.24-2.843-.788-5.844-.682-8.773-.353-2.929.329-14.219 1.17-15.431 4.458-.65 1.769 2.048 5.565 2.688 7.305a50.777 50.777 0 0 1 2.374 8.792z" fill="#F2F2F2"/><path opacity=".24" d="M159.228 88.71c.388 2.19.594 4.598-.53 6.509-1.496 2.561-4.759 3.379-7.678 3.959l-10.131 2.016c-.689.138-1.422.294-1.937.765-.608.541-.814 1.397-.903 2.204-.409 3.651.889 7.249 2.072 10.727 2.393 7.044 4.401 14.236 7.426 21.032 3.025 6.797 7.177 13.285 13.103 17.828 5.926 4.543 13.767 6.963 21.023 5.187 6.32-1.547 11.503-5.987 15.971-10.696 3.686-3.891 7.134-8.137 8.922-13.185 1.234-3.468 1.636-7.161 2.023-10.819l1.799-16.827c.281-2.632.465-5.593-1.251-7.613-.754-.888-1.778-1.479-2.823-2.027-3.889-2.056-7.984-3.754-11.603-6.23-3.618-2.477-6.828-5.888-7.927-10.119-.657-2.54-.54-5.307-1.66-7.674-1.251-2.653-3.91-4.45-6.754-5.24-2.843-.788-5.844-.682-8.773-.353-2.929.329-14.219 1.17-15.431 4.458-.65 1.769 2.048 5.565 2.688 7.305a50.777 50.777 0 0 1 2.374 8.792z" fill="#F2F2F2"/><path d="M183.61 127.181l5.94-12.517c2.783-5.866 5.627-12.029 5.332-18.507-.057-1.288-.071-2.898 1.066-3.481a3.065 3.065 0 0 1 1.561-.199 63.39 63.39 0 0 1 18.31 3.687c1.141.41 2.311.884 3.111 1.79.799.906 1.123 2.123 1.397 3.29a95.894 95.894 0 0 1 2.037 11.983c1.066 9.984.536 20.057 0 30.072l-1.579 30.579c.009.433-.08.864-.259 1.259-.391.708-1.273.945-2.066 1.079-3.053.52-6.174.414-9.267.297-21.755-.821-43.623-2.08-65.236.545.097-3.182.046-6.366-.153-9.552-.857-13.759-4.44-27.182-7.959-40.513-2.051-7.783-4.038-16.274-.736-23.608a10.133 10.133 0 0 1 2.058-3.121c1.405-1.369 3.321-2.09 5.219-2.607a33.358 33.358 0 0 1 10.056-1.132l22.413 48.565c1.023 2.221 1.866 4.56 2.886 6.753.917-3.789-.185-8.229.917-12.336 1.187-4.263 3.057-8.343 4.952-12.326z" fill="#fff"/><path d="M181.267 160.597c4.01.251 7.906-1.794 10.665-4.685 2.758-2.89 4.578-6.555 6.117-10.26a100.809 100.809 0 0 0 5.258-16.313c1.066-4.741 1.823-9.648 1.087-14.452-1.016-6.634-4.788-12.662-5.431-19.342-.11-1.167-.039-2.533.903-3.237.583-.435 1.35-.495 2.076-.538 6.704-.396 14.069-.322 19.263 3.913 1.582 1.288 2.865 2.898 4.411 4.224 3.683 3.184 8.887 4.805 11.251 9.033.825 1.471 1.219 3.138 1.795 4.723 1.358 3.75 3.708 7.047 6.043 10.292-2.264 9.509-4.866 19.026-7.131 28.536-1.326 5.58-2.662 11.18-4.745 16.522-1.365 3.503-3.082 7.076-2.663 10.826.167 1.476.661 2.887 1.091 4.309a49.3 49.3 0 0 1 2.094 15.401l-101.43.248c4.859-6.935 6.284-15.44 5.79-23.878-.238-4.044-1.155-8.112-3.199-11.611-3.221-5.484-8.887-9.057-14.471-12.117-3.91-2.123-8.109 9.821-12.335 8.452.682-4.805.995-23.351.711-28.187-.093-1.585-.235-3.212.256-4.727.334-1.036.949-1.963 1.365-2.971 1.667-4.037.078-9.199 2.772-12.634 1.863-2.388 5.13-3.068 7.785-4.539 2.727-1.515 4.835-3.892 7.209-5.923a32.138 32.138 0 0 1 16.409-7.291 20.511 20.511 0 0 1 3.132 9.198c.181 2.056.049 4.139.337 6.184.395 2.771 1.547 5.371 2.688 7.932 4.752 10.681 9.523 21.394 15.544 31.424 1.703 2.83 3.555 5.661 6.022 7.865 2.467 2.204 6.018 3.778 9.331 3.623z" fill="#E6E6E6"/><path opacity=".1" d="M181.267 160.597c4.01.251 7.906-1.794 10.665-4.685 2.758-2.89 4.578-6.555 6.117-10.26a100.809 100.809 0 0 0 5.258-16.313c1.066-4.741 1.823-9.648 1.087-14.452-1.016-6.634-4.788-12.662-5.431-19.342-.11-1.167-.039-2.533.903-3.237.583-.435 1.35-.495 2.076-.538 6.704-.396 14.069-.322 19.263 3.913 1.582 1.288 2.865 2.898 4.411 4.224 3.683 3.184 8.887 4.805 11.251 9.033.824 1.471 1.219 3.138 1.795 4.723 1.358 3.75 3.708 7.047 6.043 10.292-2.264 9.509-4.866 19.026-7.131 28.536-1.326 5.58-2.662 11.18-4.745 16.522-1.365 3.503-3.082 7.076-2.663 10.826.167 1.476.661 2.887 1.091 4.309a49.3 49.3 0 0 1 2.094 15.401l-101.43.248c4.859-6.935 6.284-15.44 5.79-23.878-.238-4.044-1.155-8.112-3.199-11.611-3.221-5.484-8.887-9.057-14.471-12.117-3.91-2.123-8.109 9.821-12.335 8.452.682-4.805.995-23.351.711-28.187-.093-1.585-.235-3.212.256-4.727.334-1.036.949-1.963 1.365-2.971 1.667-4.037.078-9.199 2.772-12.634 1.863-2.388 5.13-3.068 7.785-4.539 2.727-1.515 4.835-3.892 7.209-5.923a32.138 32.138 0 0 1 16.409-7.291 20.511 20.511 0 0 1 3.132 9.198c.181 2.056.049 4.139.337 6.184.395 2.771 1.547 5.371 2.688 7.932 4.752 10.681 9.523 21.394 15.544 31.424 1.703 2.83 3.555 5.661 6.022 7.865 2.467 2.204 6.018 3.778 9.331 3.623z" fill="#F2F2F2"/><path d="M175.903 87.907c16.829 0 30.471-13.578 30.471-30.327 0-16.75-13.642-30.327-30.471-30.327-16.828 0-30.471 13.578-30.471 30.327 0 16.749 13.643 30.327 30.471 30.327z" fill="#F2F2F2"/><path d="M159.914 97.993c.835-7.847-2.442-15.525-6.153-22.498-1.777-3.333-3.683-6.655-4.575-10.317-.892-3.661-.636-7.808 1.646-10.818 1.941-2.562 5.019-3.945 7.866-5.449 8.038-4.245 15.385-10.486 18.919-18.832-1.998 1.083-1.479 4.313.284 5.739 1.763 1.425 4.166 1.701 6.335 2.38 7.905 2.477 12.647 10.324 16.451 17.655.622 1.195 1.255 2.459 1.248 3.806-.008 1.348-.626 2.544-1.273 3.69-1.877 3.326-4.173 6.52-5.026 10.24-.978 4.245.053 8.71 1.393 12.874 1.422 4.429 3.309 8.894 6.722 12.07 3.413 3.178 8.706 4.756 12.904 2.704-4.191-7.171-8.532-15.185-6.896-23.315.789-3.892 2.911-7.43 3.814-11.3 1.72-7.384-1.145-14.98-3.957-22.027l-8.403-21.033c-1.283-3.216-2.744-6.648-5.688-8.47-1.99-1.227-4.4-1.546-6.732-1.769-7.508-.665-15.286-.445-22.274 2.335-12.733 5.063-20.717 17.545-27.052 29.652-1.898 3.626-3.771 7.479-3.693 11.569.043 2.243.672 4.425 1.184 6.612 2.083 8.901 2.197 18.125 2.303 27.263.082 7.012-.284 13.621-3.366 20.007 4.223.835 10.348 3.089 14.528 1.44 5.449-2.144 8.805-8.749 9.491-14.208z" fill="#A9ADB1"/><path opacity=".1" d="M139.243 90.606c.015-.998.015-2.005 0-3.022-.106-9.138-.22-18.362-2.303-27.263a45.848 45.848 0 0 1-1.088-5.264 13.74 13.74 0 0 0-.096 1.836c.043 2.243.672 4.426 1.184 6.612 2.072 8.848 2.2 18.015 2.303 27.1zm74.33-23.983a21.34 21.34 0 0 0 .462-6.305 19.68 19.68 0 0 1-.462 3.12c-.903 3.892-3.025 7.399-3.815 11.3a18.682 18.682 0 0 0-.284 5.23c.057-.687.152-1.37.284-2.045.79-3.902 2.912-7.422 3.815-11.3zm-11.916-8.587a5.089 5.089 0 0 0 .278-1.56c0-1.348-.626-2.611-1.248-3.807-3.804-7.33-8.532-15.17-16.451-17.654-2.169-.68-4.568-.955-6.335-2.381a4.48 4.48 0 0 1-1.557-3.114c-3.853 7.04-10.472 12.426-17.646 16.208-2.843 1.503-5.925 2.887-7.866 5.448-1.824 2.406-2.353 5.537-2.037 8.565a10.794 10.794 0 0 1 2.037-5.38c1.941-2.562 5.019-3.946 7.866-5.45 7.174-3.781 13.793-9.166 17.646-16.206a4.471 4.471 0 0 0 1.557 3.113c1.777 1.415 4.166 1.702 6.335 2.381 7.905 2.477 12.647 10.324 16.451 17.654.385.699.71 1.43.97 2.183zm2.094 37.314c-3.413-3.183-5.293-7.641-6.722-12.07a34.798 34.798 0 0 1-1.706-7.681c-.331 3.633.576 7.351 1.706 10.864 1.422 4.43 3.309 8.895 6.722 12.072 3.412 3.177 8.705 4.755 12.904 2.703-.505-.86-1.006-1.734-1.504-2.615-3.9 1.093-8.379-.463-11.4-3.272zm-43.837-.541c-.686 5.459-4.042 12.064-9.505 14.222-3.793 1.497-9.193-.223-13.313-1.174-.354.993-.76 1.967-1.215 2.918 4.223.835 10.347 3.089 14.528 1.44 5.463-2.158 8.819-8.763 9.505-14.222a24.33 24.33 0 0 0 .078-4.111c-.021.308-.053.619-.078.927z" fill="#000"/><path d="M202.987 182.528c-5.492-.867-11.066-2.54-16.512-1.415-3.157.651-6.043 2.214-8.666 4.104 1.443 1.149 3.128 2.175 4.045 3.775a14.783 14.783 0 0 1 1.272 3.491c.576 2.123 1.156 4.288 1.245 6.496.088 2.208-.356 4.507-1.678 6.287 6.924.679 13.636-1.019 20.39-2.678a5.608 5.608 0 0 0 2.157-.867c1.067-.835 1.38-2.321 1.387-3.676 0-2.42-.683-4.78-1.376-7.101-.825-2.784-1.436-5.65-2.264-8.416z" fill="#fff"/><path d="M240.07 122.853c2.726.354 4.841 2.544 6.398 4.794 4.369 6.262 6.253 13.855 8.35 21.189a281.104 281.104 0 0 0 9.196 26.93 40.426 40.426 0 0 0 2.759 5.909c.878 1.461 1.944 2.865 2.332 4.525.938 4.012-2.386 7.783-5.851 10.019a23.235 23.235 0 0 1-5.99 2.873c-2.069.615-4.227.849-6.37 1.082l-19.733 2.123c-9.082.984-18.246 1.967-27.332 1.019-.572-1.981.551-3.382.469-5.445-.056-1.475-.711-2.848-1.293-4.206a26.771 26.771 0 0 1-2.108-7.61c-.104-.966-.139-1.957-.509-2.855-.369-.899-1.162-1.706-2.133-1.769 5.332-.528 9.381-1.529 14.713-2.059 1.98-.199 4.039-.422 5.727-1.469 2.094-1.298 3.267-3.64 4.198-5.912 2.307-5.625 3.793-11.823 2.581-17.781-.995-4.886-3.772-9.436-3.757-14.421 0-2.968 1.016-5.844 2.218-8.561 1.272-2.873 2.932-5.81 5.726-7.267 2.794-1.458 7.256-1.532 10.409-1.108z" fill="#F2F2F2"/><path d="M240.07 122.853c2.726.354 4.841 2.544 6.398 4.794 4.369 6.262 6.253 13.855 8.35 21.189a281.104 281.104 0 0 0 9.196 26.93 40.426 40.426 0 0 0 2.759 5.909c.878 1.461 1.944 2.865 2.332 4.525.938 4.012-2.386 7.783-5.851 10.019a23.235 23.235 0 0 1-5.99 2.873c-2.069.615-4.227.849-6.37 1.082l-19.733 2.123c-9.082.984-18.246 1.967-27.332 1.019-.572-1.981.551-3.382.469-5.445-.056-1.475-.711-2.848-1.293-4.206a26.771 26.771 0 0 1-2.108-7.61c-.104-.966-.139-1.957-.509-2.855-.369-.899-1.162-1.706-2.133-1.769 5.332-.528 9.381-1.529 14.713-2.059 1.98-.199 4.039-.422 5.727-1.469 2.094-1.298 3.267-3.64 4.198-5.912 2.307-5.625 3.793-11.823 2.581-17.781-.995-4.886-3.772-9.436-3.757-14.421 0-2.968 1.016-5.844 2.218-8.561 1.272-2.873 2.932-5.81 5.726-7.267 2.794-1.458 7.256-1.532 10.409-1.108zm-123.566-4.595c1.29-3.049 2.602-6.198 2.637-9.506.039-3.577-1.422-6.973-2.538-10.37a59.718 59.718 0 0 1-2.74-12.803 1.76 1.76 0 0 1 .177-1.228c.295-.414.864-.499 1.365-.608 2.46-.56 4.319-2.537 5.855-4.529a49.607 49.607 0 0 0 5.993-9.963c1.177-2.607 2.769-5.788 5.642-5.813a161.88 161.88 0 0 1-4.294 16.01c3.003-.765 5.858-1.876 8.861-2.64a5.333 5.333 0 0 1 1.82-.24c1.799.187 2.901 2.61 1.856 4.079 1.468 1.712 3.91 2.172 5.83 3.347 1.919 1.174 3.299 4.082 1.592 5.558-.334.286-.757.488-.999.856-.824 1.266 1.195 2.72 1.028 4.22-.135 1.228-1.717 1.801-2.915 1.476-1.198-.326-2.133-1.217-3.199-1.872-1.067-.654-2.46-1.061-3.495-.382-.277 3.33-.576 6.722-2.022 9.754-.53 1.108-1.209 2.144-1.635 3.294a16.137 16.137 0 0 0-.754 3.867l-1.29 11.742c-6.157 1.228-11.678-.608-16.775-4.249z" fill="#F2F2F2"/><path d="M115 128.783l-1.134-7.638a12.376 12.376 0 0 1-.181-1.882c0-1.769.782-3.457 1.539-5.067 6.274 2.916 13.057 3.952 19.978 3.956.913 0 1.955-.085 2.524-.796 1.176 1.348 1.212 3.516.711 5.229-.502 1.712-1.465 3.255-2.105 4.924-.323.846-.586 1.769-1.205 2.42-.96 1.03-2.517 1.207-3.931 1.2a25.399 25.399 0 0 1-4.437-.421c-3.789-.701-7.969-2.601-11.759-1.925z" fill="#fff"/><path d="M138.401 128.472c-4.87-.552-9.708-1.33-14.514-2.335-2.357-.492-4.735-1.04-7.138-.945-1.564.064-3.245.375-4.621-.396 1.34 4.539 1.422 9.322-.181 13.777-.949 2.653-2.396 5.126-3.093 7.857-1.45 5.714.54 11.944-1.273 17.555a4.426 4.426 0 0 1-1.094 1.953c-.555.506-1.312.768-1.824 1.316-.754.807-.8 2.02-.803 3.121l-.032 9.747c-.022 6.205.06 12.786 3.352 18.043 3.754 6.014 11.656 9.131 18.534 7.302a13.802 13.802 0 0 0 5.034-2.452c2.388-1.889 3.91-4.62 5.399-7.281 1.778-3.184 3.555-6.439 4.127-10.022.405-2.537.178-5.127-.114-7.678-1.606-14.151-5.093-28.183-4.343-42.387a12.804 12.804 0 0 1 2.584-7.175z" fill="#F2F2F2"/><path d="M158.755 187.201c-2.47.142-4.959.283-7.418 0-1.778-.212-3.512-.647-5.276-.945a33.973 33.973 0 0 0-14.441.798 33.874 33.874 0 0 0-12.784 6.731c-1.365 1.16-2.745 2.94-1.991 4.564.811 1.748 3.288 1.698 5.197 1.373a15.621 15.621 0 0 0-5.332 4.15c-.533.647-1.038 1.415-.935 2.253.217 1.751 2.606 2.07 4.372 1.918-.575.615-.188 1.705.544 2.123.733.417 1.643.332 2.471.18 1.831-.334 3.6-.943 5.247-1.808-.335.867.245 1.882 1.066 2.314.821.431 1.82.4 2.741.251 4.344-.708 7.969-3.715 12.207-4.896 6.775-1.886 13.863 1.121 20.905 1.333 2.204.068 4.465-.155 6.473-1.061 2.464-1.114 4.451-3.205 7.053-3.948 2.89-.821 6.206.124 8.851-1.295 1.923-1.03.188-8.965-.302-10.494-.9-2.794-1.802-4.648-4.799-4.931-7.582-.74-16.21.951-23.849 1.39z" fill="#F2F2F2"/><path d="M177.67 185.036s11.478 9.67 4.856 20.22l12.797-4.398v-9.23c0-.439-4.859-7.03-4.859-7.03l-5.741-.881-7.053 1.319z" fill="#fff"/><path d="M293.892 207.962l-51.238 6.747-2.563.336-25.05-13.317v-3.117l78.282-8.498.569 17.849z" fill="#9C9CA1"/><path d="M229.558 203.143l55.507-6.513-.568 10.2-43.236 3.155-11.703-6.842z" fill="#939498"/><path opacity=".4" d="M242.654 211.358v3.347l-2.563.354-25.054-13.331v-3.117l23.913 12.737s3.135.293 3.704.01z" fill="#000"/><path d="M252.49 158.237l-11.503 53.086a3.378 3.378 0 0 0 .823 3.015 3.409 3.409 0 0 0 2.952 1.064l72.776-9.588a3.397 3.397 0 0 0 2.787-2.292l15.701-47.125a3.386 3.386 0 0 0-1.794-4.141 3.425 3.425 0 0 0-1.604-.317l-76.967 3.637a3.418 3.418 0 0 0-2.038.796 3.385 3.385 0 0 0-1.133 1.865z" fill="#E6E6E6"/><path d="M292.479 177.821c.178-1.691-.562-3.154-1.653-3.268-1.091-.114-2.121 1.164-2.299 2.855-.179 1.69.561 3.153 1.652 3.267 1.092.115 2.121-1.163 2.3-2.854z" fill="#1C306D"/></g><defs><clipPath id="clip0"><path fill="#fff" d="M0 0h375v222H0z"/></clipPath></defs></svg>